<svg width="12" height="12" viewBox="0 0 12 12" fill="none" xmlns="http://www.w3.org/2000/svg">
<path d="M10.0964 4.35656C10.068 4.28804 10.02 4.22946 9.95832 4.18824C9.89666 4.14702 9.82416 4.12502 9.74999 4.125H2.24999C2.17578 4.12494 2.10322 4.1469 2.0415 4.1881C1.97977 4.22931 1.93166 4.28789 1.90326 4.35645C1.87485 4.42501 1.86742 4.50046 1.88192 4.57324C1.89641 4.64602 1.93217 4.71287 1.98468 4.76531L5.73468 8.51531C5.76951 8.55018 5.81086 8.57784 5.85639 8.59671C5.90191 8.61558 5.95071 8.62529 5.99999 8.62529C6.04927 8.62529 6.09807 8.61558 6.14359 8.59671C6.18912 8.57784 6.23048 8.55018 6.2653 8.51531L10.0153 4.76531C10.0677 4.71284 10.1034 4.646 10.1179 4.57324C10.1323 4.50048 10.1248 4.42508 10.0964 4.35656Z" fill="white"/>
</svg>
