<svg width="49" height="48" viewBox="0 0 49 48" fill="none" xmlns="http://www.w3.org/2000/svg">
<path d="M2.3335 24H46.3335" stroke="#303030" stroke-width="2.5"/>
<path d="M24.3335 3.25C35.7934 3.25 45.0835 12.5401 45.0835 24C45.0835 35.4599 35.7934 44.75 24.3335 44.75C12.8736 44.75 3.5835 35.4599 3.5835 24C3.5835 12.5401 12.8736 3.25 24.3335 3.25Z" stroke="#303030" stroke-width="2.5"/>
<path d="M22.6655 5.55469C23.5745 4.42797 25.0985 4.42776 26.0073 5.55469C28.5876 8.75439 32.2524 14.8964 32.2524 24C32.2524 33.1036 28.5876 39.2456 26.0073 42.4453C25.0985 43.5722 23.5745 43.572 22.6655 42.4453C20.0852 39.2456 16.4194 33.1036 16.4194 24C16.4194 14.8964 20.0852 8.75439 22.6655 5.55469Z" stroke="#303030" stroke-width="2.5"/>
</svg>
