<svg width="49" height="48" viewBox="0 0 49 48" fill="none" xmlns="http://www.w3.org/2000/svg">
<path d="M29.9565 36.9492C28.2031 37.7325 26.3084 38.1367 24.3931 38.1367C22.4777 38.1367 20.5831 37.7325 18.8296 36.9492L18.6177 36.8545V39.7148C18.6182 40.1321 18.7816 40.5331 19.0728 40.8291C19.3279 41.0883 19.6634 41.2489 20.02 41.2852L20.1743 41.293H28.6118C29.025 41.2925 29.4217 41.1254 29.7134 40.8291C30.0046 40.5331 30.1679 40.1321 30.1685 39.7148V36.8545L29.9565 36.9492ZM28.7563 13.3027C26.6732 12.4263 24.3801 12.1967 22.1685 12.6436C19.9568 13.0905 17.9256 14.1942 16.3315 15.8135C14.7374 17.4329 13.6521 19.4966 13.2124 21.7422C12.7729 23.9874 12.9976 26.3146 13.8599 28.4297C14.7224 30.545 16.1835 32.3544 18.0581 33.627C19.8158 34.82 21.8638 35.4911 23.9712 35.5703L24.3931 35.5781C27.4161 35.5743 30.3138 34.3524 32.4507 32.1816C34.5873 30.011 35.7897 27.0687 35.7935 24C35.7935 21.7106 35.1248 19.4723 33.8726 17.5684C32.6202 15.6645 30.8395 14.1794 28.7563 13.3027ZM20.02 6.71484C19.6634 6.75109 19.3279 6.9117 19.0728 7.1709C18.7816 7.46694 18.6182 7.86788 18.6177 8.28516V11.1455L18.8296 11.0508C20.5831 10.2675 22.4777 9.86328 24.3931 9.86328C26.3084 9.86328 28.2031 10.2675 29.9565 11.0508L30.1685 11.1455V8.28516C30.1679 7.86788 30.0046 7.46694 29.7134 7.1709C29.4217 6.87464 29.025 6.70745 28.6118 6.70703H20.1743L20.02 6.71484ZM16.106 35.3271L16.0464 35.2822C14.3191 33.9715 12.916 32.269 11.9497 30.3105C10.9835 28.352 10.481 26.191 10.481 24C10.481 21.809 10.9835 19.648 11.9497 17.6895C12.916 15.731 14.3191 14.0285 16.0464 12.7178L16.106 12.6729V8.28613C16.107 7.18883 16.5362 6.13654 17.2993 5.36133C18.0623 4.58636 19.0964 4.15154 20.1743 4.15039H28.6118C29.6897 4.15152 30.7239 4.58637 31.4868 5.36133C32.2499 6.13654 32.6791 7.18882 32.6802 8.28613V12.6729L32.7397 12.7178C34.467 14.0285 35.8701 15.731 36.8364 17.6895C37.412 18.8562 37.8235 20.0953 38.062 21.3691L38.1011 21.5811L38.2866 21.4707C38.4786 21.3555 38.6983 21.293 38.9243 21.293C39.2567 21.293 39.5762 21.4274 39.812 21.667C40.0476 21.9066 40.1801 22.2317 40.1802 22.5713V25.4287C40.1801 25.7683 40.0476 26.0934 39.812 26.333C39.5762 26.5726 39.2567 26.707 38.9243 26.707C38.6983 26.707 38.4786 26.6445 38.2866 26.5293L38.1011 26.4189L38.062 26.6309C37.8235 27.9047 37.412 29.1438 36.8364 30.3105C35.8701 32.269 34.467 33.9715 32.7397 35.2822L32.6802 35.3271V39.7139C32.6791 40.8112 32.2499 41.8635 31.4868 42.6387C30.7239 43.4136 29.6897 43.8485 28.6118 43.8496H20.1743C19.0964 43.8485 18.0623 43.4136 17.2993 42.6387C16.5362 41.8635 16.107 40.8112 16.106 39.7139V35.3271Z" fill="#030104" stroke="white" stroke-width="0.3"/>
</svg>
