<svg width="49" height="48" viewBox="0 0 49 48" fill="none" xmlns="http://www.w3.org/2000/svg">
<path d="M24.0063 1.84961C25.6001 1.84961 27.3625 1.85343 28.77 2.18945C30.1775 2.52551 31.2894 3.21108 31.4761 4.61133L31.6128 5.54688C31.9631 7.70781 32.5455 9.82547 33.3501 11.8633C34.1692 12.3587 34.8492 13.0543 35.3247 13.8857C35.7842 14.6892 36.0359 15.5929 36.063 16.5166H36.8345C37.1173 16.5166 37.3884 16.6292 37.5884 16.8291C37.7883 17.0291 37.9008 17.3002 37.9009 17.583V21.25C37.9009 21.5329 37.7884 21.8039 37.5884 22.0039C37.3883 22.2039 37.1174 22.3164 36.8345 22.3164H36.0679V31.334C36.0652 32.3095 35.809 33.2675 35.3247 34.1143C34.8493 34.9456 34.169 35.6404 33.3501 36.1357C32.5453 38.1744 31.9631 40.2932 31.6128 42.4551L31.4761 43.3906C31.2904 44.7897 30.179 45.4747 28.7876 45.8105C27.3961 46.1464 25.666 46.1504 24.1372 46.1504H23.9956C22.4018 46.1504 20.6394 46.1466 19.2319 45.8105C17.9126 45.4955 16.8529 44.8736 16.5718 43.6436L16.5269 43.3887C16.2025 40.9027 15.5716 38.4665 14.6509 36.1348C13.8326 35.6395 13.1524 34.9451 12.6772 34.1143C12.193 33.2675 11.9368 32.3094 11.9341 31.334V16.666C11.9368 15.6906 12.193 14.7325 12.6772 13.8857C13.1525 13.0548 13.8324 12.3596 14.6509 11.8643C15.5716 9.53221 16.2027 7.09566 16.5269 4.60938L16.5718 4.35547C16.8519 3.126 17.9107 2.50437 19.2153 2.18945C20.6069 1.85365 22.337 1.84961 23.8657 1.84961H24.0063ZM30.7808 36.9531C30.6626 36.9663 30.5441 36.9778 30.4253 36.9834H17.5776C17.4585 36.9778 17.3397 36.9664 17.2212 36.9531C17.8876 38.9558 18.3645 41.0167 18.6421 43.1094L18.6577 43.1729C18.7092 43.3207 18.8757 43.4624 19.1948 43.5869C19.5481 43.7247 20.0348 43.8192 20.5864 43.8828C21.688 44.0098 23.0054 44.0102 23.936 44.0166H23.937C24.9756 44.0322 26.3264 44.0317 27.4321 43.8994C27.9859 43.8332 28.4679 43.7355 28.8159 43.5947C29.1739 43.4499 29.3373 43.2821 29.3599 43.1094L29.478 42.2969C29.7642 40.483 30.2008 38.6961 30.7808 36.9531ZM17.5845 13.1504C16.6522 13.1514 15.7584 13.5216 15.0991 14.1807C14.4398 14.84 14.0688 15.7346 14.0679 16.667V31.333C14.0688 32.2654 14.4398 33.16 15.0991 33.8193C15.7584 34.4784 16.6522 34.8486 17.5845 34.8496H30.4175C31.3499 34.8487 32.2445 34.4787 32.9038 33.8193C33.5631 33.16 33.9332 32.2654 33.9341 31.333V16.667C33.9332 15.7346 33.5631 14.84 32.9038 14.1807C32.2445 13.5213 31.3499 13.1513 30.4175 13.1504H17.5845ZM24.0122 3.9834C23.0122 3.9834 21.6755 3.98634 20.5728 4.11621C20.0204 4.18126 19.5375 4.27691 19.188 4.41504C18.8277 4.5575 18.6644 4.72199 18.6421 4.89062C18.3645 6.98298 17.8874 9.04348 17.2212 11.0459C17.3396 11.0326 17.4586 11.0222 17.5776 11.0166H30.4253C30.5441 11.0222 30.6626 11.0327 30.7808 11.0459C30.201 9.30321 29.7641 7.51665 29.478 5.70312L29.3599 4.89062C29.3375 4.7213 29.1741 4.55656 28.8159 4.41406C28.4685 4.27593 27.9897 4.18014 27.4458 4.11523C26.3598 3.98565 25.0564 3.9834 24.1226 3.9834H24.0122Z" fill="#030104" stroke="#030104" stroke-width="0.3"/>
</svg>
