<svg width="49" height="49" viewBox="0 0 49 49" fill="none" xmlns="http://www.w3.org/2000/svg">
<path d="M36.1507 23.9088C36.093 18.2063 40.7188 15.4773 40.9238 15.3403C38.3258 11.4767 34.2831 10.9453 32.8383 10.8866C29.401 10.5279 26.1239 12.9472 24.3748 12.9472C22.6321 12.9472 19.9348 10.9355 17.0805 10.9877C13.3261 11.0463 9.86958 13.2113 7.93469 16.6282C4.03609 23.5142 6.93522 33.7129 10.7345 39.3045C12.5925 42.0368 14.8093 45.1048 17.7148 44.9972C20.5147 44.8831 21.5718 43.1518 24.9578 43.1518C28.3439 43.1518 29.2953 44.9972 32.2553 44.9418C35.2698 44.8831 37.1758 42.1541 39.0178 39.4154C41.1513 36.243 42.029 33.1684 42.0835 33.0152C42.013 32.976 36.2116 30.7165 36.1507 23.9088ZM30.5831 7.186C32.124 5.28516 33.1683 2.63769 32.8832 0C30.6568 0.0912922 27.9691 1.50306 26.3706 3.40715C24.9386 5.0928 23.6925 7.78266 24.0256 10.3682C26.5051 10.5671 29.0422 9.08357 30.5831 7.186Z" fill="#030104"/>
</svg>
