<svg width="16" height="16" viewBox="0 0 16 16" fill="none" xmlns="http://www.w3.org/2000/svg">
<path d="M14.0306 8.53122L9.53062 13.0312C9.38973 13.1721 9.19863 13.2513 8.99937 13.2513C8.80012 13.2513 8.60902 13.1721 8.46812 13.0312C8.32723 12.8903 8.24807 12.6992 8.24807 12.5C8.24807 12.3007 8.32723 12.1096 8.46812 11.9687L11.6875 8.7506H2.5C2.30109 8.7506 2.11032 8.67158 1.96967 8.53093C1.82902 8.39028 1.75 8.19951 1.75 8.0006C1.75 7.80169 1.82902 7.61092 1.96967 7.47027C2.11032 7.32962 2.30109 7.2506 2.5 7.2506H11.6875L8.46937 4.0306C8.32848 3.8897 8.24932 3.69861 8.24932 3.49935C8.24932 3.30009 8.32848 3.10899 8.46937 2.9681C8.61027 2.8272 8.80137 2.74805 9.00062 2.74805C9.19988 2.74805 9.39098 2.8272 9.53187 2.9681L14.0319 7.4681C14.1018 7.53787 14.1573 7.62077 14.1951 7.71204C14.2329 7.8033 14.2523 7.90114 14.2522 7.99992C14.252 8.09871 14.2324 8.1965 14.1944 8.28767C14.1564 8.37885 14.1007 8.46162 14.0306 8.53122Z" fill="#2A67F4"/>
</svg>
