<svg width="142" height="142" viewBox="0 0 142 142" fill="none" xmlns="http://www.w3.org/2000/svg">
<g clip-path="url(#clip0_3733_1481)">
<path d="M8.47159 4.4375H4.4375V8.47159H8.47159V4.4375Z" fill="black"/>
<path d="M12.5057 4.4375H8.47159V8.47159H12.5057V4.4375Z" fill="black"/>
<path d="M16.5398 4.4375H12.5057V8.47159H16.5398V4.4375Z" fill="black"/>
<path d="M20.5739 4.4375H16.5398V8.47159H20.5739V4.4375Z" fill="black"/>
<path d="M24.608 4.4375H20.5739V8.47159H24.608V4.4375Z" fill="black"/>
<path d="M28.642 4.4375H24.608V8.47159H28.642V4.4375Z" fill="black"/>
<path d="M32.6761 4.4375H28.642V8.47159H32.6761V4.4375Z" fill="black"/>
<path d="M40.7443 4.4375H36.7102V8.47159H40.7443V4.4375Z" fill="black"/>
<path d="M44.7784 4.4375H40.7443V8.47159H44.7784V4.4375Z" fill="black"/>
<path d="M48.8125 4.4375H44.7784V8.47159H48.8125V4.4375Z" fill="black"/>
<path d="M52.8466 4.4375H48.8125V8.47159H52.8466V4.4375Z" fill="black"/>
<path d="M60.9148 4.4375H56.8807V8.47159H60.9148V4.4375Z" fill="black"/>
<path d="M64.9489 4.4375H60.9148V8.47159H64.9489V4.4375Z" fill="black"/>
<path d="M68.983 4.4375H64.9489V8.47159H68.983V4.4375Z" fill="black"/>
<path d="M73.017 4.4375H68.983V8.47159H73.017V4.4375Z" fill="black"/>
<path d="M81.0852 4.4375H77.0511V8.47159H81.0852V4.4375Z" fill="black"/>
<path d="M85.1193 4.4375H81.0852V8.47159H85.1193V4.4375Z" fill="black"/>
<path d="M89.1534 4.4375H85.1193V8.47159H89.1534V4.4375Z" fill="black"/>
<path d="M93.1875 4.4375H89.1534V8.47159H93.1875V4.4375Z" fill="black"/>
<path d="M97.2216 4.4375H93.1875V8.47159H97.2216V4.4375Z" fill="black"/>
<path d="M101.256 4.4375H97.2216V8.47159H101.256V4.4375Z" fill="black"/>
<path d="M105.29 4.4375H101.256V8.47159H105.29V4.4375Z" fill="black"/>
<path d="M113.358 4.4375H109.324V8.47159H113.358V4.4375Z" fill="black"/>
<path d="M117.392 4.4375H113.358V8.47159H117.392V4.4375Z" fill="black"/>
<path d="M121.426 4.4375H117.392V8.47159H121.426V4.4375Z" fill="black"/>
<path d="M125.46 4.4375H121.426V8.47159H125.46V4.4375Z" fill="black"/>
<path d="M129.494 4.4375H125.46V8.47159H129.494V4.4375Z" fill="black"/>
<path d="M133.528 4.4375H129.494V8.47159H133.528V4.4375Z" fill="black"/>
<path d="M137.562 4.4375H133.528V8.47159H137.562V4.4375Z" fill="black"/>
<path d="M8.47159 8.47159H4.4375V12.5057H8.47159V8.47159Z" fill="black"/>
<path d="M32.6761 8.47159H28.642V12.5057H32.6761V8.47159Z" fill="black"/>
<path d="M44.7784 8.47159H40.7443V12.5057H44.7784V8.47159Z" fill="black"/>
<path d="M48.8125 8.47159H44.7784V12.5057H48.8125V8.47159Z" fill="black"/>
<path d="M52.8466 8.47159H48.8125V12.5057H52.8466V8.47159Z" fill="black"/>
<path d="M56.8807 8.47159H52.8466V12.5057H56.8807V8.47159Z" fill="black"/>
<path d="M77.0511 8.47159H73.017V12.5057H77.0511V8.47159Z" fill="black"/>
<path d="M85.1193 8.47159H81.0852L81.0852 12.5057H85.1193V8.47159Z" fill="black"/>
<path d="M93.1875 8.47159H89.1534V12.5057H93.1875V8.47159Z" fill="black"/>
<path d="M113.358 8.47159H109.324V12.5057H113.358V8.47159Z" fill="black"/>
<path d="M137.562 8.47159H133.528V12.5057H137.562V8.47159Z" fill="black"/>
<path d="M8.47159 12.5057H4.4375V16.5398H8.47159V12.5057Z" fill="black"/>
<path d="M16.5398 12.5057H12.5057V16.5398H16.5398V12.5057Z" fill="black"/>
<path d="M20.5739 12.5057H16.5398V16.5398H20.5739V12.5057Z" fill="black"/>
<path d="M24.608 12.5057H20.5739V16.5398H24.608V12.5057Z" fill="black"/>
<path d="M32.6761 12.5057H28.642V16.5398H32.6761V12.5057Z" fill="black"/>
<path d="M40.7443 12.5057H36.7102V16.5398H40.7443V12.5057Z" fill="black"/>
<path d="M44.7784 12.5057H40.7443V16.5398H44.7784V12.5057Z" fill="black"/>
<path d="M52.8466 12.5057H48.8125V16.5398H52.8466V12.5057Z" fill="black"/>
<path d="M64.9489 12.5057H60.9148V16.5398H64.9489V12.5057Z" fill="black"/>
<path d="M68.983 12.5057H64.9489V16.5398H68.983V12.5057Z" fill="black"/>
<path d="M73.017 12.5057H68.983V16.5398H73.017V12.5057Z" fill="black"/>
<path d="M77.0511 12.5057H73.017V16.5398H77.0511V12.5057Z" fill="black"/>
<path d="M85.1193 12.5057H81.0852V16.5398H85.1193V12.5057Z" fill="black"/>
<path d="M89.1534 12.5057H85.1193V16.5398H89.1534V12.5057Z" fill="black"/>
<path d="M97.2216 12.5057H93.1875V16.5398H97.2216V12.5057Z" fill="black"/>
<path d="M105.29 12.5057H101.256V16.5398H105.29V12.5057Z" fill="black"/>
<path d="M113.358 12.5057H109.324V16.5398H113.358V12.5057Z" fill="black"/>
<path d="M121.426 12.5057H117.392V16.5398H121.426V12.5057Z" fill="black"/>
<path d="M125.46 12.5057H121.426V16.5398H125.46V12.5057Z" fill="black"/>
<path d="M129.494 12.5057H125.46V16.5398H129.494V12.5057Z" fill="black"/>
<path d="M137.562 12.5057H133.528V16.5398H137.562V12.5057Z" fill="black"/>
<path d="M8.47159 16.5398H4.4375V20.5739H8.47159V16.5398Z" fill="black"/>
<path d="M16.5398 16.5398H12.5057V20.5739H16.5398V16.5398Z" fill="black"/>
<path d="M20.5739 16.5398H16.5398V20.5739H20.5739V16.5398Z" fill="black"/>
<path d="M24.608 16.5398H20.5739V20.5739H24.608V16.5398Z" fill="black"/>
<path d="M32.6761 16.5398H28.642V20.5739H32.6761V16.5398Z" fill="black"/>
<path d="M40.7443 16.5398H36.7102V20.5739H40.7443V16.5398Z" fill="black"/>
<path d="M48.8125 16.5398H44.7784V20.5739H48.8125V16.5398Z" fill="black"/>
<path d="M56.8807 16.5398H52.8466V20.5739H56.8807V16.5398Z" fill="black"/>
<path d="M60.9148 16.5398H56.8807V20.5739H60.9148V16.5398Z" fill="black"/>
<path d="M73.017 16.5398H68.983V20.5739H73.017V16.5398Z" fill="black"/>
<path d="M81.0852 16.5398H77.0511V20.5739H81.0852L81.0852 16.5398Z" fill="black"/>
<path d="M97.2216 16.5398H93.1875V20.5739H97.2216V16.5398Z" fill="black"/>
<path d="M113.358 16.5398H109.324V20.5739H113.358V16.5398Z" fill="black"/>
<path d="M121.426 16.5398H117.392V20.5739H121.426V16.5398Z" fill="black"/>
<path d="M125.46 16.5398H121.426V20.5739H125.46V16.5398Z" fill="black"/>
<path d="M129.494 16.5398H125.46V20.5739H129.494V16.5398Z" fill="black"/>
<path d="M137.562 16.5398H133.528V20.5739H137.562V16.5398Z" fill="black"/>
<path d="M8.47159 20.5739H4.4375V24.608H8.47159V20.5739Z" fill="black"/>
<path d="M16.5398 20.5739H12.5057V24.608H16.5398V20.5739Z" fill="black"/>
<path d="M20.5739 20.5739H16.5398V24.608H20.5739V20.5739Z" fill="black"/>
<path d="M24.608 20.5739H20.5739V24.608H24.608V20.5739Z" fill="black"/>
<path d="M32.6761 20.5739H28.642V24.608H32.6761V20.5739Z" fill="black"/>
<path d="M40.7443 20.5739H36.7102V24.608H40.7443V20.5739Z" fill="black"/>
<path d="M56.8807 20.5739H52.8466V24.608H56.8807V20.5739Z" fill="black"/>
<path d="M73.017 20.5739H68.983V24.608H73.017V20.5739Z" fill="black"/>
<path d="M81.0852 20.5739H77.0511V24.608H81.0852V20.5739Z" fill="black"/>
<path d="M85.1193 20.5739H81.0852V24.608H85.1193V20.5739Z" fill="black"/>
<path d="M97.2216 20.5739H93.1875V24.608H97.2216V20.5739Z" fill="black"/>
<path d="M113.358 20.5739H109.324V24.608H113.358V20.5739Z" fill="black"/>
<path d="M121.426 20.5739H117.392V24.608H121.426V20.5739Z" fill="black"/>
<path d="M125.46 20.5739H121.426V24.608H125.46V20.5739Z" fill="black"/>
<path d="M129.494 20.5739H125.46V24.608H129.494V20.5739Z" fill="black"/>
<path d="M137.562 20.5739H133.528V24.608H137.562V20.5739Z" fill="black"/>
<path d="M8.47159 24.608H4.4375V28.642H8.47159V24.608Z" fill="black"/>
<path d="M32.6761 24.608H28.642V28.642H32.6761V24.608Z" fill="black"/>
<path d="M40.7443 24.608H36.7102V28.642H40.7443V24.608Z" fill="black"/>
<path d="M60.9148 24.608H56.8807V28.642H60.9148V24.608Z" fill="black"/>
<path d="M64.9489 24.608H60.9148V28.642H64.9489V24.608Z" fill="black"/>
<path d="M68.983 24.608H64.9489V28.642H68.983V24.608Z" fill="black"/>
<path d="M73.017 24.608H68.983V28.642H73.017V24.608Z" fill="black"/>
<path d="M77.0511 24.608H73.017V28.642H77.0511V24.608Z" fill="black"/>
<path d="M81.0852 24.608H77.0511V28.642H81.0852V24.608Z" fill="black"/>
<path d="M85.1193 24.608H81.0852V28.642H85.1193V24.608Z" fill="black"/>
<path d="M93.1875 24.608H89.1534V28.642H93.1875V24.608Z" fill="black"/>
<path d="M97.2216 24.608H93.1875V28.642H97.2216V24.608Z" fill="black"/>
<path d="M101.256 24.608H97.2216V28.642H101.256V24.608Z" fill="black"/>
<path d="M113.358 24.608H109.324V28.642H113.358V24.608Z" fill="black"/>
<path d="M137.562 24.608H133.528V28.642H137.562V24.608Z" fill="black"/>
<path d="M8.47159 28.642H4.4375V32.6761H8.47159V28.642Z" fill="black"/>
<path d="M12.5057 28.642H8.47159V32.6761H12.5057V28.642Z" fill="black"/>
<path d="M16.5398 28.642H12.5057V32.6761H16.5398V28.642Z" fill="black"/>
<path d="M20.5739 28.642H16.5398V32.6761H20.5739V28.642Z" fill="black"/>
<path d="M24.608 28.642H20.5739V32.6761H24.608V28.642Z" fill="black"/>
<path d="M28.642 28.642H24.608V32.6761H28.642V28.642Z" fill="black"/>
<path d="M32.6761 28.642H28.642V32.6761H32.6761V28.642Z" fill="black"/>
<path d="M40.7443 28.642H36.7102V32.6761H40.7443V28.642Z" fill="black"/>
<path d="M48.8125 28.642H44.7784V32.6761H48.8125V28.642Z" fill="black"/>
<path d="M56.8807 28.642H52.8466V32.6761H56.8807V28.642Z" fill="black"/>
<path d="M64.9489 28.642H60.9148V32.6761H64.9489V28.642Z" fill="black"/>
<path d="M73.017 28.642H68.983V32.6761H73.017V28.642Z" fill="black"/>
<path d="M81.0852 28.642H77.0511V32.6761H81.0852V28.642Z" fill="black"/>
<path d="M89.1534 28.642H85.1193V32.6761H89.1534V28.642Z" fill="black"/>
<path d="M97.2216 28.642H93.1875V32.6761H97.2216V28.642Z" fill="black"/>
<path d="M105.29 28.642H101.256V32.6761H105.29V28.642Z" fill="black"/>
<path d="M113.358 28.642H109.324V32.6761H113.358V28.642Z" fill="black"/>
<path d="M117.392 28.642H113.358V32.6761H117.392V28.642Z" fill="black"/>
<path d="M121.426 28.642H117.392V32.6761H121.426V28.642Z" fill="black"/>
<path d="M125.46 28.642H121.426V32.6761H125.46V28.642Z" fill="black"/>
<path d="M129.494 28.642H125.46V32.6761H129.494V28.642Z" fill="black"/>
<path d="M133.528 28.642H129.494V32.6761H133.528V28.642Z" fill="black"/>
<path d="M137.562 28.642H133.528V32.6761H137.562V28.642Z" fill="black"/>
<path d="M48.8125 32.6761H44.7784V36.7102H48.8125V32.6761Z" fill="black"/>
<path d="M56.8807 32.6761H52.8466V36.7102H56.8807V32.6761Z" fill="black"/>
<path d="M73.017 32.6761H68.983V36.7102H73.017V32.6761Z" fill="black"/>
<path d="M77.0511 32.6761H73.017V36.7102H77.0511V32.6761Z" fill="black"/>
<path d="M93.1875 32.6761H89.1534V36.7102H93.1875V32.6761Z" fill="black"/>
<path d="M101.256 32.6761H97.2216V36.7102H101.256V32.6761Z" fill="black"/>
<path d="M105.29 32.6761H101.256V36.7102H105.29V32.6761Z" fill="black"/>
<path d="M16.5398 36.7102H12.5057V40.7443H16.5398V36.7102Z" fill="black"/>
<path d="M20.5739 36.7102H16.5398V40.7443H20.5739V36.7102Z" fill="black"/>
<path d="M24.608 36.7102H20.5739V40.7443H24.608V36.7102Z" fill="black"/>
<path d="M28.642 36.7102H24.608V40.7443H28.642V36.7102Z" fill="black"/>
<path d="M32.6761 36.7102H28.642V40.7443H32.6761V36.7102Z" fill="black"/>
<path d="M36.7102 36.7102H32.6761V40.7443H36.7102V36.7102Z" fill="black"/>
<path d="M44.7784 36.7102H40.7443V40.7443H44.7784V36.7102Z" fill="black"/>
<path d="M48.8125 36.7102H44.7784V40.7443H48.8125V36.7102Z" fill="black"/>
<path d="M52.8466 36.7102H48.8125V40.7443H52.8466V36.7102Z" fill="black"/>
<path d="M64.9489 36.7102H60.9148V40.7443H64.9489V36.7102Z" fill="black"/>
<path d="M68.983 36.7102H64.9489V40.7443H68.983V36.7102Z" fill="black"/>
<path d="M73.017 36.7102H68.983V40.7443H73.017V36.7102Z" fill="black"/>
<path d="M85.1193 36.7102H81.0852V40.7443H85.1193V36.7102Z" fill="black"/>
<path d="M109.324 36.7102H105.29V40.7443H109.324V36.7102Z" fill="black"/>
<path d="M117.392 36.7102H113.358V40.7443H117.392V36.7102Z" fill="black"/>
<path d="M121.426 36.7102H117.392V40.7443H121.426V36.7102Z" fill="black"/>
<path d="M125.46 36.7102H121.426V40.7443H125.46V36.7102Z" fill="black"/>
<path d="M129.494 36.7102H125.46V40.7443H129.494V36.7102Z" fill="black"/>
<path d="M137.562 36.7102H133.528V40.7443H137.562V36.7102Z" fill="black"/>
<path d="M16.5398 40.7443H12.5057V44.7784H16.5398V40.7443Z" fill="black"/>
<path d="M20.5739 40.7443H16.5398V44.7784H20.5739V40.7443Z" fill="black"/>
<path d="M28.642 40.7443H24.608V44.7784H28.642V40.7443Z" fill="black"/>
<path d="M36.7102 40.7443H32.6761V44.7784H36.7102V40.7443Z" fill="black"/>
<path d="M40.7443 40.7443H36.7102V44.7784H40.7443V40.7443Z" fill="black"/>
<path d="M44.7784 40.7443H40.7443V44.7784H44.7784V40.7443Z" fill="black"/>
<path d="M48.8125 40.7443H44.7784V44.7784H48.8125V40.7443Z" fill="black"/>
<path d="M52.8466 40.7443H48.8125V44.7784H52.8466V40.7443Z" fill="black"/>
<path d="M56.8807 40.7443H52.8466V44.7784H56.8807V40.7443Z" fill="black"/>
<path d="M64.9489 40.7443H60.9148V44.7784H64.9489V40.7443Z" fill="black"/>
<path d="M85.1193 40.7443H81.0852V44.7784H85.1193V40.7443Z" fill="black"/>
<path d="M93.1875 40.7443H89.1534V44.7784H93.1875V40.7443Z" fill="black"/>
<path d="M113.358 40.7443H109.324V44.7784H113.358V40.7443Z" fill="black"/>
<path d="M125.46 40.7443H121.426V44.7784H125.46V40.7443Z" fill="black"/>
<path d="M129.494 40.7443H125.46V44.7784H129.494V40.7443Z" fill="black"/>
<path d="M8.47159 44.7784H4.4375V48.8125H8.47159V44.7784Z" fill="black"/>
<path d="M20.5739 44.7784H16.5398V48.8125H20.5739V44.7784Z" fill="black"/>
<path d="M28.642 44.7784H24.608V48.8125H28.642V44.7784Z" fill="black"/>
<path d="M32.6761 44.7784H28.642V48.8125H32.6761V44.7784Z" fill="black"/>
<path d="M36.7102 44.7784H32.6761V48.8125H36.7102V44.7784Z" fill="black"/>
<path d="M40.7443 44.7784H36.7102V48.8125H40.7443V44.7784Z" fill="black"/>
<path d="M44.7784 44.7784H40.7443V48.8125H44.7784V44.7784Z" fill="black"/>
<path d="M48.8125 44.7784H44.7784V48.8125H48.8125V44.7784Z" fill="black"/>
<path d="M52.8466 44.7784H48.8125V48.8125H52.8466V44.7784Z" fill="black"/>
<path d="M60.9148 44.7784H56.8807V48.8125H60.9148V44.7784Z" fill="black"/>
<path d="M68.983 44.7784H64.9489V48.8125H68.983V44.7784Z" fill="black"/>
<path d="M73.017 44.7784H68.983V48.8125H73.017V44.7784Z" fill="black"/>
<path d="M77.0511 44.7784H73.017V48.8125H77.0511V44.7784Z" fill="black"/>
<path d="M85.1193 44.7784H81.0852V48.8125H85.1193V44.7784Z" fill="black"/>
<path d="M97.2216 44.7784H93.1875V48.8125H97.2216V44.7784Z" fill="black"/>
<path d="M105.29 44.7784H101.256V48.8125H105.29V44.7784Z" fill="black"/>
<path d="M109.324 44.7784H105.29V48.8125H109.324V44.7784Z" fill="black"/>
<path d="M113.358 44.7784H109.324V48.8125H113.358V44.7784Z" fill="black"/>
<path d="M121.426 44.7784H117.392V48.8125H121.426V44.7784Z" fill="black"/>
<path d="M125.46 44.7784H121.426V48.8125H125.46V44.7784Z" fill="black"/>
<path d="M133.528 44.7784H129.494V48.8125H133.528V44.7784Z" fill="black"/>
<path d="M24.608 48.8125H20.5739V52.8466H24.608V48.8125Z" fill="black"/>
<path d="M28.642 48.8125H24.608V52.8466H28.642V48.8125Z" fill="black"/>
<path d="M36.7102 48.8125H32.6761V52.8466H36.7102V48.8125Z" fill="black"/>
<path d="M64.9489 48.8125H60.9148V52.8466H64.9489V48.8125Z" fill="black"/>
<path d="M73.017 48.8125H68.983V52.8466H73.017V48.8125Z" fill="black"/>
<path d="M81.0852 48.8125H77.0511V52.8466H81.0852L81.0852 48.8125Z" fill="black"/>
<path d="M93.1875 48.8125H89.1534V52.8466H93.1875V48.8125Z" fill="black"/>
<path d="M97.2216 48.8125H93.1875V52.8466H97.2216V48.8125Z" fill="black"/>
<path d="M105.29 48.8125H101.256V52.8466H105.29V48.8125Z" fill="black"/>
<path d="M113.358 48.8125H109.324V52.8466H113.358V48.8125Z" fill="black"/>
<path d="M133.528 48.8125H129.494V52.8466H133.528V48.8125Z" fill="black"/>
<path d="M137.562 48.8125H133.528V52.8466H137.562V48.8125Z" fill="black"/>
<path d="M12.5057 52.8466H8.47159V56.8807H12.5057V52.8466Z" fill="black"/>
<path d="M16.5398 52.8466H12.5057V56.8807H16.5398V52.8466Z" fill="black"/>
<path d="M20.5739 52.8466H16.5398V56.8807H20.5739V52.8466Z" fill="black"/>
<path d="M24.608 52.8466H20.5739V56.8807H24.608V52.8466Z" fill="black"/>
<path d="M32.6761 52.8466H28.642V56.8807H32.6761V52.8466Z" fill="black"/>
<path d="M36.7102 52.8466H32.6761V56.8807H36.7102V52.8466Z" fill="black"/>
<path d="M40.7443 52.8466H36.7102V56.8807H40.7443V52.8466Z" fill="black"/>
<path d="M44.7784 52.8466H40.7443V56.8807H44.7784V52.8466Z" fill="black"/>
<path d="M64.9489 52.8466H60.9148V56.8807H64.9489V52.8466Z" fill="black"/>
<path d="M73.017 52.8466H68.983V56.8807H73.017V52.8466Z" fill="black"/>
<path d="M77.0511 52.8466H73.017V56.8807H77.0511V52.8466Z" fill="black"/>
<path d="M81.0852 52.8466H77.0511V56.8807H81.0852V52.8466Z" fill="black"/>
<path d="M85.1193 52.8466H81.0852V56.8807H85.1193V52.8466Z" fill="black"/>
<path d="M101.256 52.8466H97.2216V56.8807H101.256V52.8466Z" fill="black"/>
<path d="M113.358 52.8466H109.324V56.8807H113.358V52.8466Z" fill="black"/>
<path d="M125.46 52.8466H121.426V56.8807H125.46V52.8466Z" fill="black"/>
<path d="M137.562 52.8466H133.528V56.8807H137.562V52.8466Z" fill="black"/>
<path d="M8.47159 56.8807H4.4375V60.9148H8.47159V56.8807Z" fill="black"/>
<path d="M12.5057 56.8807H8.47159V60.9148H12.5057V56.8807Z" fill="black"/>
<path d="M16.5398 56.8807H12.5057V60.9148H16.5398V56.8807Z" fill="black"/>
<path d="M40.7443 56.8807H36.7102V60.9148H40.7443V56.8807Z" fill="black"/>
<path d="M68.983 56.8807H64.9489V60.9148H68.983V56.8807Z" fill="black"/>
<path d="M73.017 56.8807H68.983V60.9148H73.017V56.8807Z" fill="black"/>
<path d="M77.0511 56.8807H73.017V60.9148H77.0511V56.8807Z" fill="black"/>
<path d="M81.0852 56.8807H77.0511V60.9148H81.0852V56.8807Z" fill="black"/>
<path d="M101.256 56.8807H97.2216V60.9148H101.256V56.8807Z" fill="black"/>
<path d="M105.29 56.8807H101.256V60.9148H105.29V56.8807Z" fill="black"/>
<path d="M113.358 56.8807H109.324V60.9148H113.358V56.8807Z" fill="black"/>
<path d="M117.392 56.8807H113.358V60.9148H117.392V56.8807Z" fill="black"/>
<path d="M129.494 56.8807H125.46V60.9148H129.494V56.8807Z" fill="black"/>
<path d="M137.562 56.8807H133.528V60.9148H137.562V56.8807Z" fill="black"/>
<path d="M12.5057 60.9148H8.47159V64.9489H12.5057V60.9148Z" fill="black"/>
<path d="M20.5739 60.9148H16.5398V64.9489H20.5739V60.9148Z" fill="black"/>
<path d="M28.642 60.9148H24.608V64.9489H28.642V60.9148Z" fill="black"/>
<path d="M32.6761 60.9148H28.642V64.9489H32.6761V60.9148Z" fill="black"/>
<path d="M40.7443 60.9148H36.7102V64.9489H40.7443V60.9148Z" fill="black"/>
<path d="M52.8466 60.9148H48.8125V64.9489H52.8466V60.9148Z" fill="black"/>
<path d="M60.9148 60.9148H56.8807V64.9489H60.9148V60.9148Z" fill="black"/>
<path d="M73.017 60.9148H68.983V64.9489H73.017V60.9148Z" fill="black"/>
<path d="M97.2216 60.9148H93.1875V64.9489H97.2216V60.9148Z" fill="black"/>
<path d="M12.5057 64.9489H8.47159V68.983H12.5057V64.9489Z" fill="black"/>
<path d="M16.5398 64.9489H12.5057V68.983H16.5398V64.9489Z" fill="black"/>
<path d="M24.608 64.9489H20.5739V68.983H24.608V64.9489Z" fill="black"/>
<path d="M28.642 64.9489H24.608V68.983H28.642V64.9489Z" fill="black"/>
<path d="M36.7102 64.9489H32.6761V68.983H36.7102V64.9489Z" fill="black"/>
<path d="M40.7443 64.9489H36.7102V68.983H40.7443V64.9489Z" fill="black"/>
<path d="M48.8125 64.9489H44.7784V68.983H48.8125V64.9489Z" fill="black"/>
<path d="M52.8466 64.9489H48.8125V68.983H52.8466V64.9489Z" fill="black"/>
<path d="M56.8807 64.9489H52.8466V68.983H56.8807V64.9489Z" fill="black"/>
<path d="M60.9148 64.9489H56.8807V68.983H60.9148V64.9489Z" fill="black"/>
<path d="M81.0852 64.9489H77.0511V68.983H81.0852V64.9489Z" fill="black"/>
<path d="M85.1193 64.9489H81.0852V68.983H85.1193V64.9489Z" fill="black"/>
<path d="M93.1875 64.9489H89.1534V68.983H93.1875V64.9489Z" fill="black"/>
<path d="M97.2216 64.9489H93.1875V68.983H97.2216V64.9489Z" fill="black"/>
<path d="M101.256 64.9489H97.2216V68.983H101.256V64.9489Z" fill="black"/>
<path d="M105.29 64.9489H101.256V68.983H105.29V64.9489Z" fill="black"/>
<path d="M113.358 64.9489H109.324V68.983H113.358V64.9489Z" fill="black"/>
<path d="M117.392 64.9489H113.358V68.983H117.392V64.9489Z" fill="black"/>
<path d="M125.46 64.9489H121.426V68.983H125.46V64.9489Z" fill="black"/>
<path d="M8.47159 68.983H4.4375V73.017H8.47159V68.983Z" fill="black"/>
<path d="M12.5057 68.983H8.47159V73.017H12.5057V68.983Z" fill="black"/>
<path d="M16.5398 68.983H12.5057V73.017H16.5398V68.983Z" fill="black"/>
<path d="M20.5739 68.983H16.5398V73.017H20.5739V68.983Z" fill="black"/>
<path d="M28.642 68.983H24.608V73.017H28.642V68.983Z" fill="black"/>
<path d="M32.6761 68.983H28.642V73.017H32.6761V68.983Z" fill="black"/>
<path d="M48.8125 68.983H44.7784V73.017H48.8125V68.983Z" fill="black"/>
<path d="M52.8466 68.983H48.8125V73.017H52.8466V68.983Z" fill="black"/>
<path d="M60.9148 68.983H56.8807V73.017H60.9148V68.983Z" fill="black"/>
<path d="M68.983 68.983H64.9489V73.017H68.983V68.983Z" fill="black"/>
<path d="M77.0511 68.983H73.017V73.017H77.0511V68.983Z" fill="black"/>
<path d="M85.1193 68.983H81.0852L81.0852 73.017H85.1193V68.983Z" fill="black"/>
<path d="M89.1534 68.983H85.1193V73.017H89.1534V68.983Z" fill="black"/>
<path d="M97.2216 68.983H93.1875V73.017H97.2216V68.983Z" fill="black"/>
<path d="M109.324 68.983H105.29V73.017H109.324V68.983Z" fill="black"/>
<path d="M113.358 68.983H109.324V73.017H113.358V68.983Z" fill="black"/>
<path d="M125.46 68.983H121.426V73.017H125.46V68.983Z" fill="black"/>
<path d="M133.528 68.983H129.494V73.017H133.528V68.983Z" fill="black"/>
<path d="M8.47159 73.017H4.4375V77.0511H8.47159V73.017Z" fill="black"/>
<path d="M12.5057 73.017H8.47159V77.0511H12.5057V73.017Z" fill="black"/>
<path d="M16.5398 73.017H12.5057V77.0511H16.5398V73.017Z" fill="black"/>
<path d="M24.608 73.017H20.5739V77.0511H24.608V73.017Z" fill="black"/>
<path d="M28.642 73.017H24.608V77.0511H28.642V73.017Z" fill="black"/>
<path d="M40.7443 73.017H36.7102V77.0511H40.7443V73.017Z" fill="black"/>
<path d="M60.9148 73.017H56.8807V77.0511H60.9148V73.017Z" fill="black"/>
<path d="M73.017 73.017H68.983V77.0511H73.017V73.017Z" fill="black"/>
<path d="M77.0511 73.017H73.017V77.0511H77.0511V73.017Z" fill="black"/>
<path d="M81.0852 73.017H77.0511V77.0511H81.0852L81.0852 73.017Z" fill="black"/>
<path d="M85.1193 73.017H81.0852L81.0852 77.0511H85.1193V73.017Z" fill="black"/>
<path d="M93.1875 73.017H89.1534V77.0511H93.1875V73.017Z" fill="black"/>
<path d="M97.2216 73.017H93.1875V77.0511H97.2216V73.017Z" fill="black"/>
<path d="M105.29 73.017H101.256V77.0511H105.29V73.017Z" fill="black"/>
<path d="M129.494 73.017H125.46V77.0511H129.494V73.017Z" fill="black"/>
<path d="M137.562 73.017H133.528V77.0511H137.562V73.017Z" fill="black"/>
<path d="M8.47159 77.0511H4.4375V81.0852H8.47159V77.0511Z" fill="black"/>
<path d="M16.5398 77.0511H12.5057V81.0852H16.5398V77.0511Z" fill="black"/>
<path d="M24.608 77.0511H20.5739V81.0852H24.608V77.0511Z" fill="black"/>
<path d="M32.6761 77.0511H28.642V81.0852H32.6761V77.0511Z" fill="black"/>
<path d="M44.7784 77.0511H40.7443V81.0852H44.7784V77.0511Z" fill="black"/>
<path d="M48.8125 77.0511H44.7784V81.0852H48.8125V77.0511Z" fill="black"/>
<path d="M56.8807 77.0511H52.8466V81.0852H56.8807V77.0511Z" fill="black"/>
<path d="M77.0511 77.0511H73.017V81.0852H77.0511V77.0511Z" fill="black"/>
<path d="M85.1193 77.0511H81.0852L81.0852 81.0852H85.1193V77.0511Z" fill="black"/>
<path d="M93.1875 77.0511H89.1534V81.0852H93.1875V77.0511Z" fill="black"/>
<path d="M109.324 77.0511H105.29V81.0852H109.324V77.0511Z" fill="black"/>
<path d="M113.358 77.0511H109.324V81.0852H113.358V77.0511Z" fill="black"/>
<path d="M121.426 77.0511H117.392V81.0852H121.426V77.0511Z" fill="black"/>
<path d="M129.494 77.0511H125.46V81.0852H129.494V77.0511Z" fill="black"/>
<path d="M133.528 77.0511H129.494V81.0852H133.528V77.0511Z" fill="black"/>
<path d="M8.47159 81.0852H4.4375V85.1193H8.47159V81.0852Z" fill="black"/>
<path d="M20.5739 81.0852H16.5398V85.1193H20.5739V81.0852Z" fill="black"/>
<path d="M44.7784 81.0852H40.7443V85.1193H44.7784V81.0852Z" fill="black"/>
<path d="M64.9489 81.0852H60.9148V85.1193H64.9489V81.0852Z" fill="black"/>
<path d="M68.983 81.0852H64.9489V85.1193H68.983V81.0852Z" fill="black"/>
<path d="M73.017 81.0852L68.983 81.0852V85.1193H73.017V81.0852Z" fill="black"/>
<path d="M77.0511 81.0852H73.017V85.1193H77.0511V81.0852Z" fill="black"/>
<path d="M89.1534 81.0852H85.1193V85.1193H89.1534V81.0852Z" fill="black"/>
<path d="M109.324 81.0852H105.29V85.1193H109.324V81.0852Z" fill="black"/>
<path d="M117.392 81.0852H113.358V85.1193H117.392V81.0852Z" fill="black"/>
<path d="M121.426 81.0852H117.392V85.1193H121.426V81.0852Z" fill="black"/>
<path d="M129.494 81.0852H125.46V85.1193H129.494V81.0852Z" fill="black"/>
<path d="M133.528 81.0852H129.494V85.1193H133.528V81.0852Z" fill="black"/>
<path d="M137.562 81.0852L133.528 81.0852V85.1193H137.562V81.0852Z" fill="black"/>
<path d="M12.5057 85.1193H8.47159V89.1534H12.5057V85.1193Z" fill="black"/>
<path d="M20.5739 85.1193H16.5398V89.1534H20.5739V85.1193Z" fill="black"/>
<path d="M28.642 85.1193H24.608V89.1534H28.642V85.1193Z" fill="black"/>
<path d="M32.6761 85.1193H28.642V89.1534H32.6761V85.1193Z" fill="black"/>
<path d="M40.7443 85.1193H36.7102V89.1534H40.7443V85.1193Z" fill="black"/>
<path d="M44.7784 85.1193H40.7443V89.1534H44.7784V85.1193Z" fill="black"/>
<path d="M52.8466 85.1193H48.8125V89.1534H52.8466V85.1193Z" fill="black"/>
<path d="M60.9148 85.1193H56.8807V89.1534H60.9148V85.1193Z" fill="black"/>
<path d="M68.983 85.1193H64.9489V89.1534H68.983V85.1193Z" fill="black"/>
<path d="M73.017 85.1193H68.983V89.1534H73.017V85.1193Z" fill="black"/>
<path d="M77.0511 85.1193H73.017V89.1534H77.0511V85.1193Z" fill="black"/>
<path d="M81.0852 85.1193H77.0511V89.1534H81.0852V85.1193Z" fill="black"/>
<path d="M89.1534 85.1193H85.1193V89.1534H89.1534V85.1193Z" fill="black"/>
<path d="M97.2216 85.1193H93.1875V89.1534H97.2216V85.1193Z" fill="black"/>
<path d="M109.324 85.1193H105.29V89.1534H109.324V85.1193Z" fill="black"/>
<path d="M117.392 85.1193H113.358V89.1534H117.392V85.1193Z" fill="black"/>
<path d="M125.46 85.1193H121.426V89.1534H125.46V85.1193Z" fill="black"/>
<path d="M133.528 85.1193H129.494V89.1534H133.528V85.1193Z" fill="black"/>
<path d="M20.5739 89.1534H16.5398V93.1875H20.5739V89.1534Z" fill="black"/>
<path d="M28.642 89.1534H24.608V93.1875H28.642V89.1534Z" fill="black"/>
<path d="M36.7102 89.1534H32.6761V93.1875H36.7102V89.1534Z" fill="black"/>
<path d="M44.7784 89.1534H40.7443V93.1875H44.7784V89.1534Z" fill="black"/>
<path d="M48.8125 89.1534H44.7784V93.1875H48.8125V89.1534Z" fill="black"/>
<path d="M52.8466 89.1534H48.8125V93.1875H52.8466V89.1534Z" fill="black"/>
<path d="M56.8807 89.1534H52.8466V93.1875H56.8807V89.1534Z" fill="black"/>
<path d="M60.9148 89.1534H56.8807V93.1875H60.9148V89.1534Z" fill="black"/>
<path d="M64.9489 89.1534H60.9148V93.1875H64.9489V89.1534Z" fill="black"/>
<path d="M68.983 89.1534H64.9489V93.1875H68.983V89.1534Z" fill="black"/>
<path d="M89.1534 89.1534H85.1193V93.1875H89.1534V89.1534Z" fill="black"/>
<path d="M101.256 89.1534H97.2216V93.1875H101.256V89.1534Z" fill="black"/>
<path d="M109.324 89.1534H105.29V93.1875H109.324V89.1534Z" fill="black"/>
<path d="M113.358 89.1534H109.324V93.1875H113.358V89.1534Z" fill="black"/>
<path d="M117.392 89.1534H113.358V93.1875H117.392V89.1534Z" fill="black"/>
<path d="M121.426 89.1534H117.392V93.1875H121.426V89.1534Z" fill="black"/>
<path d="M125.46 89.1534H121.426V93.1875H125.46V89.1534Z" fill="black"/>
<path d="M129.494 89.1534H125.46V93.1875H129.494V89.1534Z" fill="black"/>
<path d="M133.528 89.1534H129.494V93.1875H133.528V89.1534Z" fill="black"/>
<path d="M12.5057 93.1875H8.47159V97.2216H12.5057V93.1875Z" fill="black"/>
<path d="M20.5739 93.1875H16.5398V97.2216H20.5739V93.1875Z" fill="black"/>
<path d="M28.642 93.1875H24.608V97.2216H28.642V93.1875Z" fill="black"/>
<path d="M32.6761 93.1875H28.642V97.2216H32.6761V93.1875Z" fill="black"/>
<path d="M36.7102 93.1875H32.6761V97.2216H36.7102V93.1875Z" fill="black"/>
<path d="M40.7443 93.1875H36.7102V97.2216H40.7443V93.1875Z" fill="black"/>
<path d="M52.8466 93.1875H48.8125V97.2216H52.8466V93.1875Z" fill="black"/>
<path d="M60.9148 93.1875H56.8807V97.2216H60.9148V93.1875Z" fill="black"/>
<path d="M64.9489 93.1875H60.9148V97.2216H64.9489V93.1875Z" fill="black"/>
<path d="M68.983 93.1875H64.9489V97.2216H68.983V93.1875Z" fill="black"/>
<path d="M81.0852 93.1875H77.0511V97.2216H81.0852V93.1875Z" fill="black"/>
<path d="M89.1534 93.1875H85.1193V97.2216H89.1534V93.1875Z" fill="black"/>
<path d="M97.2216 93.1875H93.1875V97.2216H97.2216V93.1875Z" fill="black"/>
<path d="M101.256 93.1875H97.2216V97.2216H101.256V93.1875Z" fill="black"/>
<path d="M105.29 93.1875H101.256V97.2216H105.29V93.1875Z" fill="black"/>
<path d="M109.324 93.1875H105.29V97.2216H109.324V93.1875Z" fill="black"/>
<path d="M117.392 93.1875H113.358V97.2216H117.392V93.1875Z" fill="black"/>
<path d="M125.46 93.1875H121.426V97.2216H125.46V93.1875Z" fill="black"/>
<path d="M129.494 93.1875H125.46V97.2216H129.494V93.1875Z" fill="black"/>
<path d="M133.528 93.1875H129.494V97.2216H133.528V93.1875Z" fill="black"/>
<path d="M137.562 93.1875H133.528V97.2216H137.562V93.1875Z" fill="black"/>
<path d="M8.47159 97.2216H4.4375V101.256H8.47159V97.2216Z" fill="black"/>
<path d="M16.5398 97.2216H12.5057V101.256H16.5398V97.2216Z" fill="black"/>
<path d="M20.5739 97.2216H16.5398V101.256H20.5739V97.2216Z" fill="black"/>
<path d="M44.7784 97.2216H40.7443V101.256H44.7784V97.2216Z" fill="black"/>
<path d="M56.8807 97.2216H52.8466V101.256H56.8807V97.2216Z" fill="black"/>
<path d="M64.9489 97.2216H60.9148V101.256H64.9489V97.2216Z" fill="black"/>
<path d="M68.983 97.2216H64.9489V101.256H68.983V97.2216Z" fill="black"/>
<path d="M73.017 97.2216H68.983V101.256H73.017V97.2216Z" fill="black"/>
<path d="M77.0511 97.2216H73.017V101.256H77.0511V97.2216Z" fill="black"/>
<path d="M85.1193 97.2216H81.0852L81.0852 101.256H85.1193V97.2216Z" fill="black"/>
<path d="M113.358 97.2216H109.324V101.256H113.358V97.2216Z" fill="black"/>
<path d="M117.392 97.2216H113.358V101.256H117.392V97.2216Z" fill="black"/>
<path d="M125.46 97.2216H121.426V101.256H125.46V97.2216Z" fill="black"/>
<path d="M137.562 97.2216H133.528V101.256H137.562V97.2216Z" fill="black"/>
<path d="M12.5057 101.256H8.47159V105.29H12.5057V101.256Z" fill="black"/>
<path d="M24.608 101.256H20.5739V105.29H24.608V101.256Z" fill="black"/>
<path d="M32.6761 101.256H28.642V105.29H32.6761V101.256Z" fill="black"/>
<path d="M36.7102 101.256H32.6761V105.29H36.7102V101.256Z" fill="black"/>
<path d="M40.7443 101.256H36.7102V105.29H40.7443V101.256Z" fill="black"/>
<path d="M44.7784 101.256H40.7443V105.29H44.7784V101.256Z" fill="black"/>
<path d="M52.8466 101.256H48.8125V105.29H52.8466V101.256Z" fill="black"/>
<path d="M56.8807 101.256H52.8466V105.29H56.8807V101.256Z" fill="black"/>
<path d="M64.9489 101.256H60.9148V105.29H64.9489V101.256Z" fill="black"/>
<path d="M81.0852 101.256H77.0511V105.29H81.0852L81.0852 101.256Z" fill="black"/>
<path d="M89.1534 101.256H85.1193V105.29H89.1534V101.256Z" fill="black"/>
<path d="M93.1875 101.256H89.1534V105.29H93.1875V101.256Z" fill="black"/>
<path d="M105.29 101.256H101.256V105.29H105.29V101.256Z" fill="black"/>
<path d="M109.324 101.256H105.29V105.29H109.324V101.256Z" fill="black"/>
<path d="M113.358 101.256H109.324V105.29H113.358V101.256Z" fill="black"/>
<path d="M117.392 101.256H113.358V105.29H117.392V101.256Z" fill="black"/>
<path d="M121.426 101.256H117.392V105.29H121.426V101.256Z" fill="black"/>
<path d="M125.46 101.256H121.426V105.29H125.46V101.256Z" fill="black"/>
<path d="M137.562 101.256H133.528V105.29H137.562V101.256Z" fill="black"/>
<path d="M48.8125 105.29H44.7784V109.324H48.8125V105.29Z" fill="black"/>
<path d="M56.8807 105.29H52.8466V109.324H56.8807V105.29Z" fill="black"/>
<path d="M68.983 105.29H64.9489V109.324H68.983V105.29Z" fill="black"/>
<path d="M73.017 105.29H68.983V109.324H73.017V105.29Z" fill="black"/>
<path d="M77.0511 105.29H73.017V109.324H77.0511V105.29Z" fill="black"/>
<path d="M85.1193 105.29H81.0852L81.0852 109.324H85.1193V105.29Z" fill="black"/>
<path d="M89.1534 105.29H85.1193V109.324H89.1534V105.29Z" fill="black"/>
<path d="M97.2216 105.29H93.1875V109.324H97.2216V105.29Z" fill="black"/>
<path d="M105.29 105.29H101.256V109.324H105.29V105.29Z" fill="black"/>
<path d="M121.426 105.29H117.392V109.324H121.426V105.29Z" fill="black"/>
<path d="M125.46 105.29H121.426V109.324H125.46V105.29Z" fill="black"/>
<path d="M137.562 105.29H133.528V109.324H137.562V105.29Z" fill="black"/>
<path d="M8.47159 109.324H4.4375V113.358H8.47159V109.324Z" fill="black"/>
<path d="M12.5057 109.324H8.47159V113.358H12.5057V109.324Z" fill="black"/>
<path d="M16.5398 109.324H12.5057V113.358H16.5398V109.324Z" fill="black"/>
<path d="M20.5739 109.324H16.5398V113.358H20.5739V109.324Z" fill="black"/>
<path d="M24.608 109.324H20.5739V113.358H24.608V109.324Z" fill="black"/>
<path d="M28.642 109.324H24.608V113.358H28.642V109.324Z" fill="black"/>
<path d="M32.6761 109.324H28.642V113.358H32.6761V109.324Z" fill="black"/>
<path d="M40.7443 109.324H36.7102V113.358H40.7443V109.324Z" fill="black"/>
<path d="M44.7784 109.324H40.7443V113.358H44.7784V109.324Z" fill="black"/>
<path d="M52.8466 109.324H48.8125V113.358H52.8466V109.324Z" fill="black"/>
<path d="M60.9148 109.324H56.8807V113.358H60.9148V109.324Z" fill="black"/>
<path d="M64.9489 109.324H60.9148V113.358H64.9489V109.324Z" fill="black"/>
<path d="M77.0511 109.324H73.017V113.358H77.0511V109.324Z" fill="black"/>
<path d="M81.0852 109.324H77.0511V113.358H81.0852L81.0852 109.324Z" fill="black"/>
<path d="M93.1875 109.324H89.1534V113.358H93.1875V109.324Z" fill="black"/>
<path d="M105.29 109.324H101.256V113.358H105.29V109.324Z" fill="black"/>
<path d="M113.358 109.324H109.324V113.358H113.358V109.324Z" fill="black"/>
<path d="M121.426 109.324H117.392V113.358H121.426V109.324Z" fill="black"/>
<path d="M129.494 109.324H125.46V113.358H129.494V109.324Z" fill="black"/>
<path d="M137.562 109.324H133.528V113.358H137.562V109.324Z" fill="black"/>
<path d="M8.47159 113.358H4.4375V117.392H8.47159V113.358Z" fill="black"/>
<path d="M32.6761 113.358H28.642V117.392H32.6761V113.358Z" fill="black"/>
<path d="M40.7443 113.358H36.7102V117.392H40.7443V113.358Z" fill="black"/>
<path d="M48.8125 113.358H44.7784V117.392H48.8125V113.358Z" fill="black"/>
<path d="M52.8466 113.358H48.8125V117.392H52.8466V113.358Z" fill="black"/>
<path d="M73.017 113.358H68.983V117.392H73.017V113.358Z" fill="black"/>
<path d="M85.1193 113.358H81.0852L81.0852 117.392H85.1193V113.358Z" fill="black"/>
<path d="M89.1534 113.358H85.1193V117.392H89.1534V113.358Z" fill="black"/>
<path d="M97.2216 113.358H93.1875V117.392H97.2216V113.358Z" fill="black"/>
<path d="M105.29 113.358H101.256V117.392H105.29V113.358Z" fill="black"/>
<path d="M121.426 113.358H117.392V117.392H121.426V113.358Z" fill="black"/>
<path d="M125.46 113.358H121.426V117.392H125.46V113.358Z" fill="black"/>
<path d="M133.528 113.358H129.494V117.392H133.528V113.358Z" fill="black"/>
<path d="M137.562 113.358H133.528V117.392H137.562V113.358Z" fill="black"/>
<path d="M8.47159 117.392H4.4375V121.426H8.47159V117.392Z" fill="black"/>
<path d="M16.5398 117.392H12.5057V121.426H16.5398V117.392Z" fill="black"/>
<path d="M20.5739 117.392H16.5398V121.426H20.5739V117.392Z" fill="black"/>
<path d="M24.608 117.392H20.5739V121.426H24.608V117.392Z" fill="black"/>
<path d="M32.6761 117.392H28.642V121.426H32.6761V117.392Z" fill="black"/>
<path d="M40.7443 117.392H36.7102V121.426H40.7443V117.392Z" fill="black"/>
<path d="M48.8125 117.392H44.7784V121.426H48.8125V117.392Z" fill="black"/>
<path d="M56.8807 117.392H52.8466V121.426H56.8807V117.392Z" fill="black"/>
<path d="M73.017 117.392H68.983V121.426H73.017V117.392Z" fill="black"/>
<path d="M89.1534 117.392H85.1193V121.426H89.1534V117.392Z" fill="black"/>
<path d="M105.29 117.392H101.256V121.426H105.29V117.392Z" fill="black"/>
<path d="M109.324 117.392H105.29V121.426H109.324V117.392Z" fill="black"/>
<path d="M113.358 117.392H109.324V121.426H113.358V117.392Z" fill="black"/>
<path d="M117.392 117.392H113.358V121.426H117.392V117.392Z" fill="black"/>
<path d="M121.426 117.392H117.392V121.426H121.426V117.392Z" fill="black"/>
<path d="M125.46 117.392H121.426V121.426H125.46V117.392Z" fill="black"/>
<path d="M137.562 117.392H133.528V121.426H137.562V117.392Z" fill="black"/>
<path d="M8.47159 121.426H4.4375V125.46H8.47159V121.426Z" fill="black"/>
<path d="M16.5398 121.426H12.5057V125.46H16.5398V121.426Z" fill="black"/>
<path d="M20.5739 121.426H16.5398V125.46H20.5739V121.426Z" fill="black"/>
<path d="M24.608 121.426H20.5739V125.46H24.608V121.426Z" fill="black"/>
<path d="M32.6761 121.426H28.642V125.46H32.6761V121.426Z" fill="black"/>
<path d="M40.7443 121.426H36.7102V125.46H40.7443V121.426Z" fill="black"/>
<path d="M44.7784 121.426H40.7443V125.46H44.7784V121.426Z" fill="black"/>
<path d="M48.8125 121.426H44.7784V125.46H48.8125V121.426Z" fill="black"/>
<path d="M52.8466 121.426H48.8125V125.46H52.8466V121.426Z" fill="black"/>
<path d="M56.8807 121.426H52.8466V125.46H56.8807V121.426Z" fill="black"/>
<path d="M64.9489 121.426H60.9148V125.46H64.9489V121.426Z" fill="black"/>
<path d="M68.983 121.426H64.9489V125.46H68.983V121.426Z" fill="black"/>
<path d="M73.017 121.426H68.983V125.46H73.017V121.426Z" fill="black"/>
<path d="M77.0511 121.426H73.017V125.46H77.0511V121.426Z" fill="black"/>
<path d="M81.0852 121.426H77.0511V125.46H81.0852V121.426Z" fill="black"/>
<path d="M93.1875 121.426H89.1534V125.46H93.1875V121.426Z" fill="black"/>
<path d="M109.324 121.426H105.29V125.46H109.324V121.426Z" fill="black"/>
<path d="M117.392 121.426H113.358V125.46H117.392V121.426Z" fill="black"/>
<path d="M125.46 121.426H121.426V125.46H125.46V121.426Z" fill="black"/>
<path d="M129.494 121.426H125.46V125.46H129.494V121.426Z" fill="black"/>
<path d="M133.528 121.426H129.494V125.46H133.528V121.426Z" fill="black"/>
<path d="M8.47159 125.46H4.4375V129.494H8.47159V125.46Z" fill="black"/>
<path d="M16.5398 125.46H12.5057V129.494H16.5398V125.46Z" fill="black"/>
<path d="M20.5739 125.46H16.5398V129.494H20.5739V125.46Z" fill="black"/>
<path d="M24.608 125.46H20.5739V129.494H24.608V125.46Z" fill="black"/>
<path d="M32.6761 125.46H28.642V129.494H32.6761V125.46Z" fill="black"/>
<path d="M40.7443 125.46H36.7102V129.494H40.7443V125.46Z" fill="black"/>
<path d="M44.7784 125.46H40.7443V129.494H44.7784V125.46Z" fill="black"/>
<path d="M52.8466 125.46H48.8125V129.494H52.8466V125.46Z" fill="black"/>
<path d="M60.9148 125.46H56.8807V129.494H60.9148V125.46Z" fill="black"/>
<path d="M68.983 125.46H64.9489V129.494H68.983V125.46Z" fill="black"/>
<path d="M77.0511 125.46H73.017V129.494H77.0511V125.46Z" fill="black"/>
<path d="M85.1193 125.46H81.0852L81.0852 129.494H85.1193V125.46Z" fill="black"/>
<path d="M93.1875 125.46H89.1534V129.494H93.1875V125.46Z" fill="black"/>
<path d="M97.2216 125.46H93.1875V129.494H97.2216V125.46Z" fill="black"/>
<path d="M101.256 125.46H97.2216V129.494H101.256V125.46Z" fill="black"/>
<path d="M117.392 125.46H113.358V129.494H117.392V125.46Z" fill="black"/>
<path d="M129.494 125.46H125.46V129.494H129.494V125.46Z" fill="black"/>
<path d="M133.528 125.46H129.494V129.494H133.528V125.46Z" fill="black"/>
<path d="M8.47159 129.494H4.4375V133.528H8.47159V129.494Z" fill="black"/>
<path d="M32.6761 129.494H28.642V133.528H32.6761V129.494Z" fill="black"/>
<path d="M48.8125 129.494H44.7784V133.528H48.8125V129.494Z" fill="black"/>
<path d="M52.8466 129.494H48.8125V133.528H52.8466V129.494Z" fill="black"/>
<path d="M56.8807 129.494H52.8466V133.528H56.8807V129.494Z" fill="black"/>
<path d="M60.9148 129.494H56.8807V133.528H60.9148V129.494Z" fill="black"/>
<path d="M64.9489 129.494H60.9148V133.528H64.9489V129.494Z" fill="black"/>
<path d="M68.983 129.494H64.9489V133.528H68.983V129.494Z" fill="black"/>
<path d="M73.017 129.494H68.983V133.528H73.017V129.494Z" fill="black"/>
<path d="M81.0852 129.494H77.0511V133.528H81.0852L81.0852 129.494Z" fill="black"/>
<path d="M89.1534 129.494H85.1193V133.528H89.1534V129.494Z" fill="black"/>
<path d="M93.1875 129.494H89.1534V133.528H93.1875V129.494Z" fill="black"/>
<path d="M97.2216 129.494H93.1875V133.528H97.2216V129.494Z" fill="black"/>
<path d="M109.324 129.494H105.29V133.528H109.324V129.494Z" fill="black"/>
<path d="M113.358 129.494H109.324V133.528H113.358V129.494Z" fill="black"/>
<path d="M117.392 129.494H113.358V133.528H117.392V129.494Z" fill="black"/>
<path d="M121.426 129.494H117.392V133.528H121.426V129.494Z" fill="black"/>
<path d="M137.562 129.494H133.528V133.528H137.562V129.494Z" fill="black"/>
<path d="M8.47159 133.528H4.4375V137.562H8.47159V133.528Z" fill="black"/>
<path d="M12.5057 133.528H8.47159V137.562H12.5057V133.528Z" fill="black"/>
<path d="M16.5398 133.528H12.5057V137.562H16.5398V133.528Z" fill="black"/>
<path d="M20.5739 133.528H16.5398V137.562H20.5739V133.528Z" fill="black"/>
<path d="M24.608 133.528H20.5739V137.562H24.608V133.528Z" fill="black"/>
<path d="M28.642 133.528H24.608V137.562H28.642V133.528Z" fill="black"/>
<path d="M32.6761 133.528H28.642V137.562H32.6761V133.528Z" fill="black"/>
<path d="M44.7784 133.528H40.7443V137.562H44.7784V133.528Z" fill="black"/>
<path d="M60.9148 133.528H56.8807V137.562H60.9148V133.528Z" fill="black"/>
<path d="M68.983 133.528H64.9489V137.562H68.983V133.528Z" fill="black"/>
<path d="M77.0511 133.528H73.017V137.562H77.0511V133.528Z" fill="black"/>
<path d="M93.1875 133.528H89.1534V137.562H93.1875V133.528Z" fill="black"/>
<path d="M101.256 133.528H97.2216V137.562H101.256V133.528Z" fill="black"/>
<path d="M105.29 133.528H101.256V137.562H105.29V133.528Z" fill="black"/>
<path d="M109.324 133.528H105.29V137.562H109.324V133.528Z" fill="black"/>
<path d="M125.46 133.528H121.426V137.562H125.46V133.528Z" fill="black"/>
</g>
<defs>
<clipPath id="clip0_3733_1481">
<rect width="142" height="142" fill="white"/>
</clipPath>
</defs>
</svg>
