<svg width="37" height="36" viewBox="0 0 37 36" fill="none" xmlns="http://www.w3.org/2000/svg">
<path fill-rule="evenodd" clip-rule="evenodd" d="M3.5 7.67998C3.5 6.66229 3.90428 5.68628 4.62389 4.96667C5.34351 4.24705 6.31952 3.84277 7.33721 3.84277H29.6628C30.6805 3.84277 31.6565 4.24705 32.3761 4.96667C33.0957 5.68628 33.5 6.66229 33.5 7.67998V21.6335C33.5 22.6512 33.0957 23.6272 32.3761 24.3468C31.6565 25.0664 30.6805 25.4707 29.6628 25.4707H21.5879L22.6344 27.5637H25.4767C25.7543 27.5637 26.0205 27.674 26.2167 27.8702C26.413 28.0665 26.5233 28.3327 26.5233 28.6102C26.5233 28.8878 26.413 29.154 26.2167 29.3502C26.0205 29.5465 25.7543 29.6567 25.4767 29.6567H11.5233C11.2457 29.6567 10.9795 29.5465 10.7833 29.3502C10.587 29.154 10.4767 28.8878 10.4767 28.6102C10.4767 28.3327 10.587 28.0665 10.7833 27.8702C10.9795 27.674 11.2457 27.5637 11.5233 27.5637H14.3642L15.4107 25.4707H7.33721C6.31952 25.4707 5.34351 25.0664 4.62389 24.3468C3.90428 23.6272 3.5 22.6512 3.5 21.6335V7.67998ZM29.6628 23.3777H7.33721C6.37442 23.3777 5.59302 22.5963 5.59302 21.6335V7.67998C5.59302 6.71719 6.37442 5.9358 7.33721 5.9358H29.6628C30.6256 5.9358 31.407 6.71719 31.407 7.67998V21.6335C31.407 22.5963 30.6256 23.3777 29.6628 23.3777Z" fill="white"/>
</svg>
