<svg width="37" height="36" viewBox="0 0 37 36" fill="none" xmlns="http://www.w3.org/2000/svg">
<path d="M23.9004 31.4121V33.4121H13.0996V31.4121H23.9004ZM25.5 29.8125V6.41211C25.4998 5.52876 24.7837 4.81271 23.9004 4.8125H13.0996C12.2163 4.81271 11.5002 5.52876 11.5 6.41211V29.8125C11.5 30.696 12.2161 31.4119 13.0996 31.4121V33.4121C11.1116 33.4119 9.5 31.8006 9.5 29.8125V6.41211C9.50021 4.4242 11.1117 2.81271 13.0996 2.8125H23.9004L24.085 2.81738C25.9871 2.91365 27.4998 4.4861 27.5 6.41211V29.8125L27.4951 29.998C27.4017 31.8388 25.9258 33.3151 24.085 33.4082L23.9004 33.4121V31.4121C24.7839 31.4119 25.5 30.696 25.5 29.8125Z" fill="white"/>
<path d="M19.1426 5.49219C19.6603 5.49219 20.0801 5.91192 20.0801 6.42969C20.0801 6.94745 19.6603 7.36719 19.1426 7.36719H18.5C17.9822 7.36719 17.5625 6.94745 17.5625 6.42969C17.5625 5.91192 17.9822 5.49219 18.5 5.49219H19.1426Z" fill="white"/>
</svg>
