<svg width="36" height="36" viewBox="0 0 36 36" fill="none" xmlns="http://www.w3.org/2000/svg">
<path fill-rule="evenodd" clip-rule="evenodd" d="M20.9609 3.2998L21.2432 3.31445C21.8975 3.38104 22.5132 3.67566 22.9834 4.15332C23.4536 4.63104 23.7446 5.25791 23.8105 5.92578L23.8252 6.21484V9.59766L23.9434 9.6875C25.2155 10.6529 26.249 11.9075 26.9609 13.3506C27.385 14.2102 27.6886 15.1229 27.8643 16.0615L27.9434 16.4854L28.3135 16.2637C28.4289 16.1944 28.5605 16.1572 28.6953 16.1572C28.8938 16.1572 29.0856 16.2376 29.2275 16.3818C29.3695 16.5262 29.4502 16.7228 29.4502 16.9287V19.0713C29.4502 19.2772 29.3695 19.4738 29.2275 19.6182C29.0856 19.7624 28.8938 19.8428 28.6953 19.8428C28.5605 19.8428 28.4289 19.8056 28.3135 19.7363L27.9434 19.5146L27.8643 19.9385C27.6886 20.8771 27.385 21.7898 26.9609 22.6494C26.249 24.0925 25.2155 25.3471 23.9434 26.3125L23.8252 26.4023V29.7861C23.8242 30.5601 23.5207 31.3008 22.9834 31.8467C22.5132 32.3243 21.8975 32.619 21.2432 32.6855L20.9609 32.7002H14.6328C13.875 32.6993 13.1477 32.3925 12.6104 31.8467C12.0729 31.3006 11.7693 30.5593 11.7686 29.7852V26.4023L11.6504 26.3125C10.3783 25.3471 9.34476 24.0925 8.63281 22.6494C7.92095 21.2064 7.5498 19.6145 7.5498 18C7.5498 16.3855 7.92095 14.7936 8.63281 13.3506C9.34476 11.9075 10.3783 10.6529 11.6504 9.6875L11.7686 9.59766V6.21484C11.7693 5.44067 12.0729 4.69938 12.6104 4.15332C13.1477 3.60749 13.875 3.30066 14.6328 3.2998H20.9609ZM21.8936 27.541C20.6024 28.1179 19.2071 28.415 17.7969 28.415C16.3866 28.415 14.9914 28.1179 13.7002 27.541L13.2783 27.3516V29.7861C13.2787 30.1478 13.4194 30.4964 13.6729 30.7539C13.9266 31.0116 14.2724 31.1569 14.6328 31.1572H20.9609C21.3213 31.1569 21.6672 31.0116 21.9209 30.7539C22.1743 30.4964 22.315 30.1478 22.3154 29.7861V27.3516L21.8936 27.541ZM21.1416 9.80469C19.5447 9.13282 17.7874 8.95631 16.0918 9.29883C14.3961 9.64148 12.8388 10.4876 11.6172 11.7285C10.3956 12.9695 9.56334 14.5505 9.22656 16.2705C8.88993 17.9902 9.06308 19.7733 9.72363 21.3936C10.3844 23.0138 11.5037 24.3997 12.9404 25.375C14.3774 26.3504 16.0677 26.8711 17.7969 26.8711C20.1148 26.8682 22.3361 25.9311 23.9736 24.2676C25.6108 22.6043 26.5313 20.3503 26.5342 18C26.5342 16.2464 26.022 14.532 25.0625 13.0732C24.103 11.6145 22.7386 10.4767 21.1416 9.80469ZM14.6328 4.84277C14.2724 4.84314 13.9266 4.98836 13.6729 5.24609C13.4194 5.50362 13.2787 5.85218 13.2783 6.21387V8.64844L13.7002 8.45898C14.9914 7.88214 16.3866 7.58496 17.7969 7.58496C19.2071 7.58496 20.6024 7.88215 21.8936 8.45898L22.3154 8.64844V6.21387C22.315 5.85218 22.1743 5.50362 21.9209 5.24609C21.6672 4.98836 21.3213 4.84314 20.9609 4.84277H14.6328Z" fill="white"/>
</svg>
