<svg width="1200" height="675" viewBox="0 0 1200 675" fill="none" xmlns="http://www.w3.org/2000/svg">
  <defs>
    <radialGradient id="r" cx="0" cy="0" r="1" gradientUnits="userSpaceOnUse" gradientTransform="translate(280 180) rotate(35) scale(880 520)">
      <stop stop-color="#175CFF" stop-opacity="0.22"/>
      <stop offset="0.55" stop-color="#FF6FA5" stop-opacity="0.14"/>
      <stop offset="1" stop-color="#175CFF" stop-opacity="0.10"/>
    </radialGradient>
  </defs>
  <rect width="1200" height="675" rx="40" fill="white"/>
  <rect x="28" y="28" width="1144" height="619" rx="32" fill="url(#r)"/>
  <rect x="80" y="96" width="340" height="32" rx="16" fill="#0B1220" fill-opacity="0.75"/>
  <rect x="80" y="150" width="520" height="16" rx="8" fill="#0B1220" fill-opacity="0.35"/>
  <rect x="80" y="190" width="1040" height="160" rx="30" fill="white" fill-opacity="0.74"/>
  <rect x="110" y="228" width="240" height="16" rx="8" fill="#0B1220" fill-opacity="0.55"/>
  <rect x="110" y="258" width="420" height="14" rx="7" fill="#0B1220" fill-opacity="0.24"/>
  <rect x="80" y="370" width="1040" height="232" rx="30" fill="white" fill-opacity="0.74"/>
  <rect x="110" y="408" width="520" height="18" rx="9" fill="#0B1220" fill-opacity="0.36"/>
  <rect x="110" y="438" width="440" height="14" rx="7" fill="#0B1220" fill-opacity="0.20"/>
  <rect x="110" y="482" width="980" height="16" rx="8" fill="#0B1220" fill-opacity="0.18"/>
  <rect x="110" y="512" width="720" height="16" rx="8" fill="#0B1220" fill-opacity="0.14"/>
</svg>
