<svg width="1200" height="675" viewBox="0 0 1200 675" fill="none" xmlns="http://www.w3.org/2000/svg">
  <defs>
    <linearGradient id="g" x1="0" y1="0" x2="1200" y2="675" gradientUnits="userSpaceOnUse">
      <stop stop-color="#175CFF" stop-opacity="0.20"/>
      <stop offset="0.55" stop-color="#FF6FA5" stop-opacity="0.18"/>
      <stop offset="1" stop-color="#175CFF" stop-opacity="0.12"/>
    </linearGradient>
  </defs>
  <rect width="1200" height="675" rx="40" fill="white"/>
  <rect x="28" y="28" width="1144" height="619" rx="32" fill="url(#g)"/>
  <rect x="80" y="96" width="360" height="28" rx="14" fill="#0B1220" fill-opacity="0.75"/>
  <rect x="80" y="150" width="520" height="16" rx="8" fill="#0B1220" fill-opacity="0.45"/>
  <rect x="80" y="188" width="460" height="16" rx="8" fill="#0B1220" fill-opacity="0.28"/>
  <rect x="80" y="270" width="1040" height="110" rx="26" fill="white" fill-opacity="0.75"/>
  <rect x="112" y="306" width="320" height="18" rx="9" fill="#0B1220" fill-opacity="0.55"/>
  <rect x="112" y="338" width="540" height="14" rx="7" fill="#0B1220" fill-opacity="0.28"/>
  <rect x="80" y="410" width="500" height="210" rx="28" fill="white" fill-opacity="0.70"/>
  <rect x="610" y="410" width="510" height="210" rx="28" fill="white" fill-opacity="0.70"/>
  <circle cx="160" cy="475" r="32" fill="#175CFF" fill-opacity="0.18"/>
  <circle cx="690" cy="475" r="32" fill="#FF6FA5" fill-opacity="0.18"/>
  <rect x="210" y="460" width="290" height="16" rx="8" fill="#0B1220" fill-opacity="0.40"/>
  <rect x="740" y="460" width="300" height="16" rx="8" fill="#0B1220" fill-opacity="0.40"/>
</svg>
