<svg width="185" height="29" viewBox="0 0 185 29" fill="none" xmlns="http://www.w3.org/2000/svg">
<path d="M14.5 0L18.6762 8.75193L28.2903 10.0193L21.2573 16.6956L23.0229 26.2307L14.5 21.605L5.97711 26.2307L7.74274 16.6956L0.709681 10.0193L10.3238 8.75193L14.5 0Z" fill="#F1A121"/>
<path d="M53.5 0L57.6762 8.75193L67.2903 10.0193L60.2573 16.6956L62.0229 26.2307L53.5 21.605L44.9771 26.2307L46.7427 16.6956L39.7097 10.0193L49.3238 8.75193L53.5 0Z" fill="#F1A121"/>
<path d="M92.5 0L96.6762 8.75193L106.29 10.0193L99.2573 16.6956L101.023 26.2307L92.5 21.605L83.9771 26.2307L85.7427 16.6956L78.7097 10.0193L88.3238 8.75193L92.5 0Z" fill="#F1A121"/>
<path d="M131.5 0L135.676 8.75193L145.29 10.0193L138.257 16.6956L140.023 26.2307L131.5 21.605L122.977 26.2307L124.743 16.6956L117.71 10.0193L127.324 8.75193L131.5 0Z" fill="#F1A121"/>
<path opacity="0.5" d="M170.5 0L174.676 8.75193L184.29 10.0193L177.257 16.6956L179.023 26.2307L170.5 21.605L161.977 26.2307L163.743 16.6956L156.71 10.0193L166.324 8.75193L170.5 0Z" fill="#F1A121"/>
<mask id="mask0_1406_596" style="mask-type:alpha" maskUnits="userSpaceOnUse" x="156" y="0" width="29" height="27">
<path d="M170.5 0L174.676 8.75193L184.29 10.0193L177.257 16.6956L179.023 26.2307L170.5 21.605L161.977 26.2307L163.743 16.6956L156.71 10.0193L166.324 8.75193L170.5 0Z" fill="#F1A121"/>
</mask>
<g mask="url(#mask0_1406_596)">
<rect x="156" width="18" height="29" fill="#F1A121"/>
</g>
</svg>
