<svg width="24" height="25" viewBox="0 0 24 25" fill="none" xmlns="http://www.w3.org/2000/svg">
<path d="M18.7135 15.8993H17.388L18.1767 17.2924C18.2554 17.4331 18.296 17.5919 18.2944 17.7531C18.2928 17.9143 18.2491 18.0723 18.1677 18.2115C18.0862 18.3506 17.9698 18.466 17.83 18.5463C17.6901 18.6266 17.5318 18.6689 17.3705 18.6691C17.2069 18.6683 17.0463 18.6245 16.905 18.542C16.7636 18.4594 16.6465 18.3411 16.5655 18.1989L15.264 15.8993L14.2244 14.0535L13.2676 12.3495C13.2363 12.3115 13.2106 12.2692 13.1913 12.224C13.1579 12.1726 13.1273 12.1194 13.0996 12.0647C13.0996 12.0647 13.0996 12.056 13.0909 12.056C12.8985 11.6731 12.7981 11.2507 12.7975 10.8222C12.7975 10.1262 13.0658 9.488 13.4935 9.00146L16.0287 13.4993L16.3473 14.0535H18.7135C19.2251 14.0535 19.6364 14.4647 19.6364 14.9764C19.6367 15.0976 19.613 15.2178 19.5667 15.3299C19.5204 15.442 19.4524 15.5438 19.3667 15.6296C19.2809 15.7154 19.1791 15.7833 19.067 15.8296C18.9549 15.8759 18.8347 15.8996 18.7135 15.8993ZM13.9473 15.8993H5.28655C5.16527 15.8996 5.04513 15.8759 4.93302 15.8296C4.82092 15.7833 4.71907 15.7154 4.63331 15.6296C4.54755 15.5438 4.47958 15.442 4.4333 15.3299C4.38702 15.2178 4.36335 15.0976 4.36364 14.9764C4.36364 14.4647 4.77491 14.0535 5.28655 14.0535H7.65382L10.9342 8.24655V8.23782L10.02 6.61782C9.9603 6.51215 9.92206 6.39574 9.90746 6.27525C9.89287 6.15477 9.90221 6.03259 9.93495 5.91573C9.96768 5.79886 10.0232 5.68961 10.0982 5.59425C10.1733 5.49888 10.2665 5.41928 10.3724 5.36C10.4781 5.30028 10.5946 5.26201 10.7152 5.2474C10.8357 5.23279 10.958 5.24212 11.075 5.27486C11.1919 5.30759 11.3013 5.36309 11.3967 5.43817C11.4922 5.51324 11.5719 5.60642 11.6313 5.71236L12 6.36691L12.3698 5.71236C12.4293 5.60657 12.509 5.51351 12.6044 5.43852C12.6998 5.36353 12.8091 5.30806 12.9259 5.27529C13.0428 5.24252 13.1649 5.23309 13.2854 5.24753C13.4059 5.26197 13.5224 5.3 13.6282 5.35946C13.734 5.41891 13.827 5.49862 13.902 5.59403C13.977 5.68945 14.0325 5.7987 14.0653 5.91555C14.098 6.0324 14.1075 6.15456 14.093 6.27505C14.0786 6.39555 14.0405 6.51202 13.9811 6.61782L13.0658 8.24655L12 10.1262L9.77673 14.0535H12.8389C13.536 14.0535 14.0978 14.6153 14.0978 15.3124C14.0978 15.5218 14.0476 15.7236 13.9473 15.8993ZM7.43564 18.1989C7.35422 18.341 7.2369 18.4593 7.09541 18.5418C6.95393 18.6243 6.79324 18.6682 6.62945 18.6691C6.46807 18.6693 6.30944 18.6273 6.16939 18.5471C6.02934 18.4669 5.91277 18.3514 5.8313 18.2121C5.74983 18.0728 5.70632 17.9145 5.7051 17.7531C5.70389 17.5918 5.74501 17.4329 5.82436 17.2924L6.34473 16.3695C6.67021 16.2959 7.00862 16.3017 7.33139 16.3863C7.65417 16.471 7.95183 16.6321 8.19927 16.856L7.43564 18.1989ZM18.2815 0.5H5.71855C2.25055 0.5 0 2.74945 0 6.21855V18.7815C0 22.2495 2.25055 24.5 5.71855 24.5H18.2815C21.7505 24.5 24 22.2495 24 18.7815V6.21855C24 2.74945 21.7505 0.5 18.2815 0.5Z" fill="#BABABA"/>
</svg>
