<svg width="28" height="28" viewBox="0 0 28 28" fill="none" xmlns="http://www.w3.org/2000/svg">
<path d="M20.4545 17.9566C20.2231 17.9566 19.9968 17.887 19.8044 17.7566C19.6119 17.6261 19.4619 17.4407 19.3734 17.2238C19.2848 17.0069 19.2616 16.7682 19.3068 16.538C19.3519 16.3077 19.4634 16.0962 19.627 15.9302C19.7907 15.7642 19.9992 15.6511 20.2262 15.6053C20.4532 15.5595 20.6885 15.583 20.9023 15.6729C21.1162 15.7627 21.2989 15.9149 21.4275 16.1101C21.5561 16.3053 21.6247 16.5348 21.6247 16.7696C21.6247 17.0844 21.5014 17.3863 21.282 17.6089C21.0625 17.8315 20.7649 17.9566 20.4545 17.9566ZM7.56987 17.9566C7.33842 17.9566 7.11217 17.887 6.91973 17.7566C6.72729 17.6261 6.5773 17.4407 6.48873 17.2238C6.40015 17.0069 6.37698 16.7682 6.42214 16.538C6.46729 16.3077 6.57874 16.0962 6.7424 15.9302C6.90606 15.7642 7.11457 15.6511 7.34157 15.6053C7.56857 15.5595 7.80387 15.583 8.0177 15.6729C8.23153 15.7627 8.41429 15.9149 8.54288 16.1101C8.67146 16.3053 8.74009 16.5348 8.74009 16.7696C8.74009 17.0844 8.6168 17.3863 8.39734 17.6089C8.17788 17.8315 7.88023 17.9566 7.56987 17.9566ZM20.869 10.8343L23.2094 6.74145C23.241 6.68541 23.2613 6.62359 23.2693 6.55954C23.2773 6.4955 23.2727 6.43049 23.2558 6.36825C23.2389 6.30601 23.2101 6.24777 23.1709 6.19687C23.1318 6.14597 23.0831 6.10342 23.0277 6.07166C22.9723 6.0399 22.9113 6.01955 22.8481 6.01179C22.7849 6.00402 22.7209 6.009 22.6596 6.02643C22.5983 6.04385 22.541 6.07339 22.491 6.11334C22.4411 6.15329 22.3994 6.20286 22.3683 6.25921L20.0035 10.4015C18.1253 9.53089 16.0833 9.08372 14.0183 9.09082C11.9508 9.08569 9.90615 9.52833 8.0209 10.3892L5.65607 6.24684C5.59269 6.13437 5.48798 6.05193 5.36484 6.01756C5.2417 5.98319 5.11015 5.99968 4.99897 6.06343C4.88779 6.12718 4.80602 6.23299 4.77153 6.35773C4.73705 6.48247 4.75267 6.61599 4.81498 6.72908L7.14323 10.8219C5.13013 11.9356 3.42265 13.5411 2.17537 15.4929C0.928094 17.4447 0.180409 19.6812 0 22H28C27.8251 19.6828 27.0809 17.447 25.8353 15.4966C24.5896 13.5462 22.8822 11.9433 20.869 10.8343Z" fill="#030104"/>
</svg>
