<svg width="37" height="36" viewBox="0 0 37 36" fill="none" xmlns="http://www.w3.org/2000/svg">
<path fill-rule="evenodd" clip-rule="evenodd" d="M18.0039 1.27539C19.1955 1.27539 20.5315 1.27752 21.6025 1.5332C22.6067 1.77295 23.4554 2.25714 23.6807 3.24023L23.7178 3.44336C23.9582 5.28632 24.4238 7.09363 25.1035 8.82324C25.7189 9.20324 26.2313 9.72984 26.5908 10.3584C26.9265 10.9454 27.1176 11.6022 27.1543 12.2754H27.625C27.867 12.2754 28.0994 12.3709 28.2705 12.542C28.4416 12.7131 28.5371 12.9455 28.5371 13.1875V15.9375C28.5371 16.1795 28.4416 16.4119 28.2705 16.583C28.0994 16.7541 27.867 16.8496 27.625 16.8496H27.1621V23.501C27.16 24.252 26.9636 24.9897 26.5908 25.6416C26.2314 26.27 25.7187 26.7958 25.1035 27.1758C24.5095 28.6873 24.0789 30.2574 23.8193 31.8594L23.7178 32.5576C23.5692 33.6773 22.6752 34.2111 21.6162 34.4668C20.5569 34.7225 19.2447 34.7246 18.1016 34.7246H17.9961C16.8045 34.7246 15.4685 34.7225 14.3975 34.4668C13.3264 34.2111 12.4317 33.6773 12.2822 32.5566C12.0417 30.7133 11.5755 28.9058 10.8955 27.1758C10.2806 26.7958 9.76845 26.2698 9.40918 25.6416C9.03639 24.9897 8.83998 24.252 8.83789 23.501V12.499C8.83998 11.748 9.03639 11.0103 9.40918 10.3584C9.76854 9.73008 10.2804 9.2032 10.8955 8.82324C11.5754 7.09298 12.0419 5.28602 12.2822 3.44238L12.3193 3.23926C12.5438 2.25701 13.391 1.77289 14.3838 1.5332C15.4431 1.2775 16.7553 1.27539 17.8984 1.27539H18.0039ZM22.8232 27.8496L22.8125 27.8506L13.1768 27.8496C13.1425 27.848 13.1084 27.8442 13.0742 27.8418C13.5483 29.2996 13.8911 30.7973 14.0928 32.3174L14.1123 32.3701C14.1471 32.4296 14.2351 32.5074 14.4365 32.5859C14.6879 32.6839 15.0414 32.7534 15.4521 32.8008C16.271 32.8951 17.252 32.8955 17.9521 32.9004H17.9541C18.733 32.9121 19.7387 32.9117 20.5596 32.8135C20.9719 32.7642 21.3222 32.6918 21.5693 32.5918C21.8313 32.4858 21.8988 32.3819 21.9072 32.3174L21.9961 31.7051C22.2028 30.3949 22.5145 29.1034 22.9248 27.8418C22.8909 27.8442 22.8572 27.848 22.8232 27.8496ZM13.1875 9.97461C12.5181 9.97534 11.8767 10.2424 11.4033 10.7158C10.9299 11.1892 10.6628 11.8306 10.6621 12.5V23.5C10.6628 24.1694 10.9299 24.8108 11.4033 25.2842C11.8767 25.7576 12.5181 26.0247 13.1875 26.0254H22.8125C23.4819 26.0247 24.1233 25.7576 24.5967 25.2842C25.011 24.8699 25.2674 24.327 25.3252 23.749L25.3379 23.5V12.5C25.3372 11.8306 25.0701 11.1892 24.5967 10.7158C24.1824 10.3015 23.6395 10.0451 23.0615 9.9873L22.8125 9.97461H13.1875ZM18.0078 3.09961C17.2566 3.09961 16.2606 3.10274 15.4414 3.19922C15.0305 3.24764 14.68 3.31788 14.4316 3.41602C14.1672 3.52058 14.1008 3.62215 14.0928 3.68262C13.8911 5.20242 13.5482 6.69972 13.0742 8.15723C13.1084 8.1548 13.1425 8.152 13.1768 8.15039L13.1875 8.14941L22.8232 8.15039C22.8571 8.15198 22.891 8.15483 22.9248 8.15723C22.4509 6.69981 22.1088 5.20232 21.9072 3.68262C21.8991 3.6215 21.8329 3.51957 21.5703 3.41504C21.3234 3.31681 20.9753 3.24658 20.5703 3.19824C19.7635 3.10196 18.7925 3.09961 18.0908 3.09961H18.0078Z" fill="white"/>
</svg>
