<svg width="36" height="36" viewBox="0 0 36 36" fill="none" xmlns="http://www.w3.org/2000/svg">
<path fill-rule="evenodd" clip-rule="evenodd" d="M23.585 2.81738C25.4871 2.91365 26.9998 4.4861 27 6.41211V29.8125L26.9951 29.998C26.9017 31.8388 25.4258 33.3151 23.585 33.4082L12.5996 33.4121C10.6116 33.4119 9 31.8006 9 29.8125V6.41211C9.00021 4.4242 10.6117 2.81271 12.5996 2.8125L23.585 2.81738ZM12.5996 4.8125C11.7163 4.81271 11.0002 5.52876 11 6.41211V29.8125C11 30.696 11.7161 31.4119 12.5996 31.4121H23.4004C24.2839 31.4119 25 30.696 25 29.8125V6.41211C24.9998 5.52876 24.2837 4.81271 23.4004 4.8125H12.5996Z" fill="white"/>
<path d="M20.0283 5.41309L20.1299 5.41797C20.6344 5.46894 21.0283 5.89514 21.0283 6.41309C21.0283 6.93103 20.6344 7.35723 20.1299 7.4082L20.0283 7.41309H16.2031C15.6508 7.41309 15.2031 6.96537 15.2031 6.41309C15.2031 5.8608 15.6508 5.41309 16.2031 5.41309H20.0283Z" fill="white"/>
<path d="M22.1436 29.3633C22.1436 28.811 21.6958 28.3633 21.1436 28.3633H14.8438C14.2915 28.3633 13.8438 28.811 13.8438 29.3633C13.8438 29.9156 14.2915 30.3633 14.8438 30.3633H21.1436C21.6958 30.3633 22.1436 29.9156 22.1436 29.3633Z" fill="white"/>
</svg>
